<mxfile host="app.diagrams.net" modified="2024-04-06T06:55:57.593Z" agent="Mozilla/5.0 (Windows NT 10.0; Win64; x64) AppleWebKit/537.36 (KHTML, like Gecko) Chrome/121.0.0.0 Safari/537.36 OPR/107.0.0.0" version="24.1.0" etag="Mb8RBLpg40oZbDsZTgCm" type="github">
  <diagram name="Page-1" id="32a1jgE46zHo834lrqx_">
    <mxGraphModel>
      <root>
        <mxCell id="0" />
        <mxCell id="1" parent="0" />
      </root>
    </mxGraphModel>
  </diagram>
</mxfile>
